# xmcd
#
# Track frame offsets:
# 150
# 11590
# 25405
# 37435
# 49650
# 61728
# 74183
# 100955
# 113020
#
# Disc length: 1958 seconds
#
# Revision: 1
# Processed by: cddbd v1.4PL0 Copyright (c) Steve Scherf et al.
# Submitted via: Axialis_AX_CDPlayer 2.6
#
DISCID=7f07a409
DTITLE=Various Artist - The Blues Story
DYEAR=1900
DGENRE=
TTITLE0=Goin' Home
TTITLE1=Highway 49
TTITLE2=Crawling King Snake
TTITLE3=Mean Mistreatin' Mama
TTITLE4=My Baby's So Sweet
TTITLE5=Cause Of It All
TTITLE6=It's Hard For me To Believe
TTITLE7=Honest I Do
TTITLE8=I'm In The mood
EXTD=
EXTT0=
EXTT1=
EXTT2=
EXTT3=
EXTT4=
EXTT5=
EXTT6=
EXTT7=
EXTT8=
PLAYORDER=
